<?xml version="1.0" standalone="no"?>
<!DOCTYPE svg PUBLIC "-//W3C//DTD SVG 20010904//EN"
 "http://www.w3.org/TR/2001/REC-SVG-20010904/DTD/svg10.dtd">
<svg version="1.0" xmlns="http://www.w3.org/2000/svg"
 width="200.000000pt" height="200.000000pt" viewBox="0 0 200.000000 200.000000"
 preserveAspectRatio="xMidYMid meet">
<metadata>
Created by potrace 1.11, written by Peter Selinger 2001-2013
</metadata>
<g transform="translate(0.000000,200.000000) scale(0.100000,-0.100000)"
fill="#000000" stroke="none">
<path d="M537 1682 c-15 -16 -17 -52 -17 -298 0 -237 2 -283 16 -302 15 -21
21 -22 187 -22 l172 0 0 -62 0 -63 -32 -3 c-18 -2 -33 -7 -33 -13 0 -5 63 -9
150 -9 93 0 150 4 150 10 0 6 -13 10 -30 10 l-30 0 0 65 0 65 169 0 c188 0
200 4 202 63 0 41 0 472 0 514 -2 65 12 63 -460 63 -402 0 -429 -1 -444 -18z
m871 -14 c17 -17 17 -559 0 -576 -15 -15 -824 -17 -848 -2 -13 8 -15 52 -16
287 -1 168 3 283 9 291 14 17 837 18 855 0z m-363 -673 l0 -60 -63 -3 -62 -3
0 66 0 66 63 -3 62 -3 0 -60z"/>
<path d="M1037 1542 c-10 -16 -127 -313 -127 -322 0 -35 24 10 79 148 35 86
65 163 68 170 5 13 -13 17 -20 4z"/>
<path d="M730 1444 c-52 -29 -95 -58 -95 -64 0 -11 195 -123 203 -116 9 10
-13 27 -88 68 -44 24 -80 45 -80 48 0 3 33 23 73 44 81 43 97 55 97 67 0 14
-9 10 -110 -47z"/>
<path d="M1125 1491 c-3 -6 33 -31 80 -57 47 -26 85 -51 85 -54 0 -4 -10 -12
-22 -18 -13 -6 -41 -22 -63 -35 -22 -12 -50 -28 -63 -35 -12 -7 -20 -17 -17
-22 4 -6 24 0 48 13 132 74 157 90 157 97 0 17 -197 123 -205 111z"/>
<path d="M592 778 c3 -7 11 -13 19 -13 11 0 15 -34 19 -179 4 -131 8 -180 18
-184 8 -2 12 9 12 40 l0 43 26 -28 c39 -42 124 -72 124 -43 0 9 -8 16 -20 16
-25 0 -72 23 -88 43 -10 12 -6 15 27 21 21 3 44 12 50 20 51 61 -40 124 -101
69 -16 -15 -17 -9 -20 93 l-3 109 -34 3 c-24 3 -32 0 -29 -10z m169 -214 c11
-14 10 -19 -10 -35 -26 -21 -76 -25 -87 -7 -9 14 40 58 65 58 10 0 25 -7 32
-16z"/>
<path d="M1330 776 c0 -9 9 -16 20 -16 19 0 20 -8 22 -172 l3 -173 33 -3 c18
-2 32 1 32 7 0 6 -9 11 -20 11 -19 0 -20 8 -22 178 l-3 177 -32 3 c-25 2 -33
-1 -33 -12z"/>
<path d="M155 710 c-40 -16 -56 -54 -41 -97 7 -22 49 -42 134 -63 72 -18 93
-82 36 -108 -28 -13 -123 -16 -140 -4 -7 4 -13 16 -15 26 -7 33 -29 31 -29 -3
0 -40 27 -54 105 -55 92 -1 145 31 145 89 0 32 -46 67 -115 86 -84 23 -112 46
-95 78 15 29 48 40 104 35 57 -4 66 -9 66 -35 0 -10 7 -19 15 -19 26 0 14 50
-17 66 -29 15 -120 18 -153 4z"/>
<path d="M1094 666 c-3 -7 -4 -17 -3 -22 4 -25 -3 -42 -23 -52 l-23 -11 23 -7
c12 -3 22 -11 23 -18 0 -6 1 -37 2 -69 3 -72 22 -92 81 -82 45 7 56 12 56 27
0 6 -10 7 -27 3 -38 -10 -65 -8 -73 6 -4 6 -8 37 -9 69 l-1 59 47 3 c53 3 61
22 10 25 -17 0 -38 1 -44 2 -8 1 -13 16 -13 41 0 39 -15 54 -26 26z"/>
<path d="M1848 633 c-2 -28 -7 -37 -18 -34 -29 8 -74 0 -91 -15 -24 -21 -32
-60 -18 -85 7 -15 8 -28 1 -43 -5 -11 -16 -41 -23 -65 -13 -43 -12 -44 16 -68
25 -22 36 -25 86 -21 80 6 118 43 90 87 -5 8 -40 19 -78 25 -48 8 -68 16 -68
26 0 10 12 16 39 17 69 4 105 47 84 102 -4 13 -3 29 4 40 12 19 4 71 -12 71
-5 0 -10 -17 -12 -37z m-12 -78 c11 -16 11 -25 1 -45 -23 -46 -97 -31 -97 20
0 48 69 66 96 25z m17 -171 c21 -6 22 -27 3 -43 -23 -20 -87 -23 -113 -6 -22
15 -30 44 -17 58 7 7 95 0 127 -9z"/>
<path d="M428 596 c-22 -8 -28 -16 -28 -38 0 -18 5 -28 15 -28 8 0 15 9 15 19
0 39 83 39 95 1 10 -31 -1 -38 -47 -33 -34 4 -48 0 -65 -17 -60 -56 20 -131
87 -81 23 17 29 18 34 6 6 -17 66 -21 66 -5 0 6 -9 10 -20 10 -11 0 -20 5 -21
10 -1 6 -2 33 -3 60 -2 28 -4 57 -4 65 -4 31 -76 49 -124 31z m102 -115 c0
-10 -42 -47 -60 -53 -42 -14 -70 45 -29 60 23 9 89 3 89 -7z"/>
<path d="M887 589 c-9 -5 -23 -22 -30 -37 -45 -89 40 -181 128 -139 19 9 35
23 35 32 0 19 2 19 -44 -4 -44 -23 -77 -14 -94 24 -13 29 -7 31 73 30 33 0 63
4 66 9 10 13 -9 69 -28 84 -20 14 -81 15 -106 1z m76 -18 c13 -5 27 -19 30
-30 5 -20 1 -21 -59 -21 -61 0 -64 1 -54 20 10 18 37 39 52 40 4 0 18 -4 31
-9z"/>
<path d="M1496 569 c-31 -37 -34 -81 -6 -126 56 -92 199 -17 170 89 -13 44
-47 68 -99 68 -32 0 -44 -6 -65 -31z m112 -6 c51 -44 21 -135 -43 -135 -62 0
-89 91 -39 131 33 26 55 26 82 4z"/>
<path d="M1270 419 c0 -24 23 -21 28 4 2 10 -3 17 -12 17 -10 0 -16 -9 -16
-21z"/>
</g>
</svg>
